<?xml version="1.0" encoding="UTF-8"?><svg id="Layer_2" xmlns="http://www.w3.org/2000/svg" xmlns:xlink="http://www.w3.org/1999/xlink" viewBox="0 0 250 118.99"><defs><clipPath id="clippath"><rect width="250" height="118.99" style="fill:none; stroke-width:0px;"/></clipPath></defs><g id="Layer_1-2"><g style="clip-path:url(#clippath);"><path d="m2.26,42.69c.45-8.11,5.93-12.88,15.74-16.28,12.84-4.46,25.75-8.76,38.85-12.4C111.53-1.25,131.08-2.88,186.11,12.31c16.61,4.66,33.24,9.53,49.33,15.75,10.3,3.99,12.56,5.51,12.8,15.66.2,8.47.49,26.91-.28,37.55-1.1,7.66-13.55,10.03-28.16,15.08-17.12,5.74-34.5,10.74-52.09,14.85-16.68,3.85-29.81,7.2-47.02,6.22-15.14-.86-57.48-10.48-83.47-18.43-24.37-7.46-34.58-9.68-34.84-18.41-.23-7.97-.78-26.09-.12-37.88Z" style="fill:#1b1d56; stroke:#3cc2ea; stroke-miterlimit:10; stroke-width:1.57px;"/><path d="m204.88,52.38c-.03-1.18-.07-2.11-.09-2.63-.22-5.11.02-10.23-.02-15.35,0-.81.25-.97,1-.97,4.62.03,9.25.03,13.87,0,.91,0,1.24.21,1.24,1.2-.04,11.25-.04,22.5,0,33.75,0,.99-.26,1.3-1.25,1.29-4.79-.04-9.58-.03-14.37-.01-.65,0-1.1-.07-1.57-.72-1.08-1.51-2.37-2.87-3.56-4.31-2.48-3.01-4.94-6.04-7.41-9.06-1.38-1.69-2.75-3.39-4.16-5.06-.15-.18-.26-.64-.64-.44-.25.13-.13.48-.13.73,0,5.64,0,11.28,0,16.93,0,1.78,0,1.77-1.81,1.77-4.33-.02-8.66-.02-12.99-.03-1.21,0-1.34-.09-1.16-1.3.17-1.18.13-2.35.13-3.53,0-9.71,0-19.42,0-29.13q0-2.05,2.09-2.05c4.23,0,8.46,0,12.69,0,.44,0,.84,0,1.21.17.39.19.6.51.65.57.48.67,6.97,7.88,16.27,18.18Z" style="fill:#eb1e25; stroke-width:0px;"/><path d="m76,46.95c2.17-1.72,3.75-3.63,5.52-5.34,2.43-2.34,4.76-4.8,7.16-7.18.68-.68,1.46-1.07,2.55-1.05,4.79.08,9.57.03,14.36.02.13,0,.27,0,.39.02.24.05.56-.1.68.23.1.3-.12.44-.32.63-2.18,2.19-4.34,4.4-6.51,6.6-2.15,2.17-4.3,4.34-6.46,6.51-.39.39-.44.62,0,1.1,2.38,2.62,4.62,5.17,6.77,7.87,1.74,2.19,3.55,4.31,5.34,6.44,1.55,1.85,3.24,3.79,4.78,5.44.2.21.43.44.28.75-.11.22-.45.23-.72.23-5.64,0-11.28,0-16.92.01-.47,0-.91-.21-1.22-.56-1.36-1.56-2.86-2.99-4.27-4.5-3.56-3.81-4.69-4.26-5.54-6.04,0,0-.66-1.38-1.67-1.69-.13-.04-.25-.02-.25-.02-.08.01-.16.04-.26.11-1.87,1.4-2.96,3.07-2.96,3.07-.85,1.21-.65,2.99-.61,3.96.05,1.61-.02,3.21.02,4.82.02.74-.26.93-.98.93-5.41-.03-10.82,0-16.23,0-1.29,0-1.43-.13-1.44-1.39,0-11.02,0-22.04,0-33.06,0-1.68-.11-1.43,1.41-1.43,5.31-.01,10.63.01,15.94-.04.96,0,1.22.28,1.21,1.23-.05,3.64-.03,7.28-.03,10.92,0,.38,0,.77,0,1.41Z" style="fill:#eb1e25; stroke-width:0px;"/><path d="m163.01,51.36c0,3.08-.02,6.17.01,9.25,0,.87-.29,1.57-.83,2.2-1.88,2.23-4.28,3.61-7.03,4.56-2.43.84-4.91,1.19-7.41,1.62-4.47.78-8.94.87-13.41.58-2.09-.14-4.2-.49-6.28-.98-2.18-.51-4.27-1.15-6.31-2.04-1.95-.85-3.45-2.23-4.73-3.86-.53-.68-.84-1.51-.84-2.42,0-6.04-.03-12.07.01-18.11.02-2.6,1.92-3.94,3.86-5.11,1.45-.88,2.98-1.66,4.57-2.24,1.11-.4,2.3-.65,3.46-.92,3.86-.91,7.83-1.01,11.76-1.09,2.29-.05,4.65-.02,6.91.36,2.11.35,4.22.78,6.31,1.33,2.41.64,4.66,1.52,6.71,2.87,1.91,1.25,3.39,2.83,3.28,5.43-.12,2.85-.03,5.71-.03,8.56h-.01Zm-29.87-.57h0c0,2-.02,4,.01,6,.02.93.22,1.88.68,2.65,1.68,2.77,3.87,3.81,7.01,3.14,3.25-.69,4.93-2.44,5.07-5.65.17-4.06.1-8.14-.02-12.2-.06-2.07-1.05-3.66-3.03-4.69-1.31-.67-2.6-.63-3.95-.73-2.92-.21-5.79,3.02-5.76,5.77.02,1.9,0,3.81,0,5.71Z" style="fill:#eb1e25; stroke-width:0px;"/><path d="m28.8,51.27c0-5.61.01-11.21-.01-16.82,0-.79.18-1.05,1.04-1.05,5.21.04,10.43.02,15.64.02,1.36,0,1.42.06,1.42,1.37,0,11.02,0,22.03.02,33.05,0,1.14-.25,1.48-1.45,1.47-5.08-.04-10.16-.01-15.25-.01-1.3,0-1.4-.1-1.4-1.41,0-5.54,0-11.08,0-16.62Z" style="fill:#eb1e25; stroke-width:0px;"/><path d="m84.48,80.48c0,3.47,0,6.93,0,10.4q0,1.81-1.8,1.84c-1.21.02-2.42.03-3.64.08-.44.02-.64-.06-.64-.57.02-5.08.02-10.17,0-15.25,0-.47.17-.62.64-.62,2.89.01,5.77.02,8.66-.01.64,0,.74.4.9.83,1.05,2.75,2.11,5.5,3.16,8.25.07.18.09.39.38.52,1-2.9,2.19-5.73,2.97-8.7.19-.73.42-1.06,1.21-1.05,2.79.03,5.57.02,8.36,0,.62,0,.86.14.85.82-.03,5.05-.02,10.1,0,15.15,0,.61-.2.8-.79.79-1.51-.03-3.02-.05-4.52,0-.76.03-.94-.26-.94-.96.03-3.67.01-7.34-.19-11.07-.34.94-.7,1.87-1.03,2.81-1.01,2.84-2.03,5.67-3.01,8.52-.17.48-.38.67-.9.65-1.34-.05-2.69-.06-4.03-.03-.68.02-.96-.28-1.19-.89-1.34-3.7-2.71-7.38-4.08-11.06-.06-.15-.13-.29-.19-.44-.07,0-.13,0-.2,0Z" style="fill:#3cc2ea; stroke-width:0px;"/><path d="m131.36,87.38c0,.98,0,1.97,0,2.95,0,.56.1,1.08.43,1.58.45.67.3.96-.48.96-1.61.01-3.21,0-4.82.01-.48,0-.92-.15-.99-.62-.12-.84-.59-.51-.98-.35-2.38.97-4.87,1.29-7.41,1.17-1.31-.06-2.6-.26-3.72-1.07-1.83-1.33-1.72-3.55.25-4.63,1.87-1.02,3.92-1.45,6-1.72,1.39-.18,2.78-.44,4.19-.47.55-.01,1.19-.2,1.23-.89.04-.7-.61-.77-1.11-.88-1.72-.38-3.4-.51-4.69,1.06-.19.23-.47.2-.73.18-1.73-.13-3.46-.29-5.19-.38-.75-.04-.68-.36-.46-.85.32-.73.91-1.18,1.57-1.57,1.18-.7,2.51-1.06,3.84-1.12,3.13-.14,6.28-.43,9.39.33.74.18,1.46.42,2.09.82,1.02.65,1.7,1.49,1.6,2.83-.07.88-.01,1.77-.01,2.66h0Zm-10.34,3.18c.39-.03.79-.03,1.17-.1.45-.08.89-.2,1.32-.35,1.05-.37,1.61-1.3,1.4-2.27-.06-.25-.06-.55-.44-.53-1.69.12-3.39.24-4.93,1.06-.4.21-.7.51-.59,1.02.1.46.29.85.81,1.01.42.13.83.16,1.26.16Z" style="fill:#3cc2ea; stroke-width:0px;"/><path d="m166.79,93.06c-1.5-.01-3.01.13-4.44-.53-1.31-.61-2.08-1.56-2.09-3.04,0-1.38-.03-2.75,0-4.13.02-.8-.18-1.2-1.1-1.15-1.26.07-1.27,0-1.31-1.31,0-.07-.01-.13-.01-.2-.05-1.72-.05-1.75,1.65-1.78.62,0,.86-.23.75-.81-.22-1.16.31-1.67,1.39-1.98,1.54-.44,3.04-1.02,4.53-1.6.7-.27.85-.06.82.61-.04.95.03,1.9-.02,2.85-.03.67.15.96.86.9.72-.06,1.44.01,2.16-.02.52-.02.69.2.67.7-.03.65-.03,1.31,0,1.97.05.72-.28.89-.94.87-.81-.02-1.86-.37-2.38.13-.57.55-.14,1.62-.2,2.45-.05.65.04,1.3-.08,1.96-.09.52.01.9.74.72.42-.1.89.03,1.34.03,1.21,0,1.69.33,1.76,1.23.12,1.39-.28,1.97-1.58,2.1-.84.08-1.7.02-2.56.02Z" style="fill:#3cc2ea; stroke-width:0px;"/><path d="m145.29,82.77c.72-.67,1.09-1.44,1.91-1.75,1.51-.55,3.04-.46,4.56-.21.94.16.96.59.47,1.4-.93,1.54-1.97,2.52-4.02,2.02-1.23-.3-2.49,1.45-2.52,3.18-.03,1.51-.03,3.02,0,4.53.02.67-.2.94-.9.92-1.7-.04-3.41-.03-5.12,0-.63,0-.86-.21-.85-.86.03-3.44.02-6.89,0-10.33,0-.57.15-.82.77-.82,1.47,0,2.95-.02,4.42-.11.87-.05,1.32.15,1.17,1.11-.04.24.05.5.1.92Z" style="fill:#3cc2ea; stroke-width:0px;"/></g></g></svg>